<svg xmlns="http://www.w3.org/2000/svg" width="1012.912" height="157" viewBox="0 0 1012.912 157">
  <g id="Group_33" data-name="Group 33" transform="translate(-454 -462)">
    <path id="Path_15" data-name="Path 15" d="M76.074,0h-12.7V-17.187H18.75V0H6.055V-35.01A36.92,36.92,0,0,1,8.691-49.121a32.933,32.933,0,0,1,7.324-11.084A33.345,33.345,0,0,1,27.1-67.432,36.892,36.892,0,0,1,41.064-70.02H69.678a6.409,6.409,0,0,1,2.49.488,6.291,6.291,0,0,1,2.051,1.367,6.291,6.291,0,0,1,1.367,2.051,6.409,6.409,0,0,1,.488,2.49ZM18.75-29.883H63.379V-57.324H41.064q-.586,0-2.466.171a25.051,25.051,0,0,0-4.346.854,27.191,27.191,0,0,0-5.2,2.1,18.266,18.266,0,0,0-5.029,3.906,20.005,20.005,0,0,0-3.784,6.226A24.486,24.486,0,0,0,18.75-35.01Zm78.545-33.74H84.6V-75.1h12.7ZM97.295,0H84.6V-52.783h12.7Zm65.068-17.822a19.39,19.39,0,0,1-.83,5.884,17.145,17.145,0,0,1-2.2,4.59,14.932,14.932,0,0,1-3.174,3.369,18.52,18.52,0,0,1-3.784,2.271,19.451,19.451,0,0,1-4,1.294A19.133,19.133,0,0,1,144.541,0h-22.9a19.152,19.152,0,0,1-5.859-.83,16.778,16.778,0,0,1-4.565-2.222,15.4,15.4,0,0,1-3.369-3.2,18.521,18.521,0,0,1-2.271-3.784,19.451,19.451,0,0,1-1.294-4,18.921,18.921,0,0,1-.415-3.784V-35.01a17.62,17.62,0,0,1,1.782-8.276,17.115,17.115,0,0,1,4.443-5.518,16.945,16.945,0,0,1,5.786-3.052,20.36,20.36,0,0,1,5.762-.928h22.9v12.7h-22.8a5.287,5.287,0,0,0-3.857,1.294,5.071,5.071,0,0,0-1.318,3.784v17.09a5.36,5.36,0,0,0,1.294,3.906,5.071,5.071,0,0,0,3.784,1.318h22.9a5.127,5.127,0,0,0,3.857-1.318,5.276,5.276,0,0,0,1.27-3.809V-75.1h12.7Zm65.313,22.9a19.39,19.39,0,0,1-.83,5.884,17.145,17.145,0,0,1-2.2,4.59,14.932,14.932,0,0,1-3.174,3.369,18.52,18.52,0,0,1-3.784,2.271,19.565,19.565,0,0,1-3.979,1.294,18.779,18.779,0,0,1-3.809.415H6v-12.7H209.9a5.056,5.056,0,0,0,3.809-1.318,5.276,5.276,0,0,0,1.27-3.809V-52.783h12.7ZM209.9,0H187a20.4,20.4,0,0,1-5.835-.928,17.246,17.246,0,0,1-5.786-3.052A16.7,16.7,0,0,1,170.938-9.5a17.942,17.942,0,0,1-1.758-8.325V-52.783h12.7v34.961a5.157,5.157,0,0,0,1.318,3.809A5.3,5.3,0,0,0,187.1-12.7h22.8Zm75.908-17.822a19.39,19.39,0,0,1-.83,5.884,17.144,17.144,0,0,1-2.2,4.59,14.932,14.932,0,0,1-3.174,3.369,18.521,18.521,0,0,1-3.784,2.271,19.451,19.451,0,0,1-4,1.294A19.133,19.133,0,0,1,267.988,0H233.613V-12.7h34.277a5.3,5.3,0,0,0,3.906-1.318,5.157,5.157,0,0,0,1.318-3.809q-.244-5.078-5.127-5.078H248.311a15.814,15.814,0,0,1-7.129-1.465,14.565,14.565,0,0,1-4.761-3.662,13.961,13.961,0,0,1-2.637-4.736,15.715,15.715,0,0,1-.806-4.736,15.349,15.349,0,0,1,1.514-7.153,14.288,14.288,0,0,1,3.809-4.712,14.941,14.941,0,0,1,4.98-2.612,17.551,17.551,0,0,1,5.029-.806h31.2v12.7h-31.1a4.34,4.34,0,0,0-1.538.22,1.815,1.815,0,0,0-.83.586,1.629,1.629,0,0,0-.317.781,6.9,6.9,0,0,0-.049.806,2.918,2.918,0,0,0,.293,1.221,1.536,1.536,0,0,0,.61.635,1.96,1.96,0,0,0,.83.22q.464.024.9.024h19.678a17.977,17.977,0,0,1,8.3,1.758,16.513,16.513,0,0,1,5.518,4.419,17.529,17.529,0,0,1,3.052,5.786A20.017,20.017,0,0,1,285.811-17.822Z" transform="translate(599 552.098)" fill="#cbd5e0"/>
    <path id="Path_16" data-name="Path 16" d="M70.654-57.324H42.676V0H29.98V-57.324H-108.047v-12.7h178.7ZM124.785-35.3a19.628,19.628,0,0,1-.928,5.688,17,17,0,0,1-3,5.664,16.743,16.743,0,0,1-5.42,4.37,17.292,17.292,0,0,1-8.13,1.758H84.4V-29.883h22.9a5.087,5.087,0,0,0,4-1.587,5.688,5.688,0,0,0,1.416-3.931,4.966,4.966,0,0,0-1.587-3.906,5.556,5.556,0,0,0-3.833-1.416H84.4a5.087,5.087,0,0,0-4,1.587,5.688,5.688,0,0,0-1.416,3.931V-17.48a5.026,5.026,0,0,0,1.587,3.955A5.688,5.688,0,0,0,84.5-12.109h22.8V0H84.4a19.628,19.628,0,0,1-5.688-.928,17,17,0,0,1-5.664-3,16.743,16.743,0,0,1-4.37-5.42,17.292,17.292,0,0,1-1.758-8.13V-35.3a19.628,19.628,0,0,1,.928-5.688,17,17,0,0,1,3-5.664,16.743,16.743,0,0,1,5.42-4.37,17.292,17.292,0,0,1,8.13-1.758h22.9a19.628,19.628,0,0,1,5.688.928,17,17,0,0,1,5.664,3,16.743,16.743,0,0,1,4.37,5.42A17.292,17.292,0,0,1,124.785-35.3ZM179.453,0H145.029a20.36,20.36,0,0,1-5.762-.928,16.945,16.945,0,0,1-5.786-3.052A17.115,17.115,0,0,1,129.038-9.5a17.736,17.736,0,0,1-1.782-8.325V-35.01a18.779,18.779,0,0,1,.415-3.809,19.566,19.566,0,0,1,1.294-3.979,18.521,18.521,0,0,1,2.271-3.784,14.932,14.932,0,0,1,3.369-3.174,17.222,17.222,0,0,1,4.565-2.2,19.153,19.153,0,0,1,5.859-.83h34.424v12.7H145.029a5.188,5.188,0,0,0-3.784,1.27,5.258,5.258,0,0,0-1.294,3.906v17.09a5.157,5.157,0,0,0,1.318,3.809,5.227,5.227,0,0,0,3.857,1.318h34.326Zm64.189,0h-12.7V-35.01a5.188,5.188,0,0,0-1.27-3.784,5.113,5.113,0,0,0-3.809-1.294h-22.9v-12.7h22.9a18.779,18.779,0,0,1,3.809.415,19.566,19.566,0,0,1,3.979,1.294,18.52,18.52,0,0,1,3.784,2.271,14.932,14.932,0,0,1,3.174,3.369,17.222,17.222,0,0,1,2.2,4.565,19.152,19.152,0,0,1,.83,5.859Zm-45.8,0h-12.7V-75.1h12.7ZM308.76,0h-12.7V-29.3a11.159,11.159,0,0,0-.854-4.468,10.393,10.393,0,0,0-2.319-3.394,10.073,10.073,0,0,0-3.442-2.173,11.853,11.853,0,0,0-4.272-.757H262.959V0h-12.7V-46.484a6.231,6.231,0,0,1,.488-2.466,6.085,6.085,0,0,1,1.367-2,6.493,6.493,0,0,1,2.051-1.343,6.409,6.409,0,0,1,2.49-.488h28.613a25.574,25.574,0,0,1,5.054.537,24.094,24.094,0,0,1,5.273,1.733,25.46,25.46,0,0,1,4.98,3.027,20.272,20.272,0,0,1,4.2,4.443,21.828,21.828,0,0,1,2.905,6.03A25.69,25.69,0,0,1,308.76-29.3Zm63.555-17.822a19.39,19.39,0,0,1-.83,5.884,17.144,17.144,0,0,1-2.2,4.59,14.932,14.932,0,0,1-3.174,3.369,18.521,18.521,0,0,1-3.784,2.271,19.451,19.451,0,0,1-4,1.294A19.133,19.133,0,0,1,354.492,0h-22.9a20.36,20.36,0,0,1-5.762-.928,16.945,16.945,0,0,1-5.786-3.052A17.115,17.115,0,0,1,315.6-9.5a17.736,17.736,0,0,1-1.782-8.325V-35.01a17.62,17.62,0,0,1,1.782-8.276,17.115,17.115,0,0,1,4.443-5.518,16.945,16.945,0,0,1,5.786-3.052,20.36,20.36,0,0,1,5.762-.928h22.9a17.977,17.977,0,0,1,8.3,1.758,16.513,16.513,0,0,1,5.518,4.419,17.529,17.529,0,0,1,3.052,5.786,20.017,20.017,0,0,1,.952,5.811Zm-12.7-17.09a5.2,5.2,0,0,0-1.318-3.906,5.276,5.276,0,0,0-3.809-1.27h-22.8a5.287,5.287,0,0,0-3.857,1.294,5.071,5.071,0,0,0-1.318,3.784v17.188a5.157,5.157,0,0,0,1.318,3.809,5.227,5.227,0,0,0,3.857,1.318h22.8a5.127,5.127,0,0,0,3.857-1.318,5.277,5.277,0,0,0,1.27-3.809ZM401.3,0h-5.664A20.4,20.4,0,0,1,389.8-.928a17.246,17.246,0,0,1-5.786-3.052A16.7,16.7,0,0,1,379.57-9.5a17.942,17.942,0,0,1-1.758-8.325V-75.1h12.7v57.275a4.909,4.909,0,0,0,1.465,3.735,5.108,5.108,0,0,0,3.662,1.392H401.3Zm60.576-17.822a19.39,19.39,0,0,1-.83,5.884,17.144,17.144,0,0,1-2.2,4.59,14.932,14.932,0,0,1-3.174,3.369,18.521,18.521,0,0,1-3.784,2.271,19.451,19.451,0,0,1-4,1.294A19.133,19.133,0,0,1,444.053,0h-22.9a20.36,20.36,0,0,1-5.762-.928A16.945,16.945,0,0,1,409.6-3.979,17.115,17.115,0,0,1,405.161-9.5a17.736,17.736,0,0,1-1.782-8.325V-35.01a17.62,17.62,0,0,1,1.782-8.276A17.115,17.115,0,0,1,409.6-48.8a16.945,16.945,0,0,1,5.786-3.052,20.36,20.36,0,0,1,5.762-.928h22.9a17.977,17.977,0,0,1,8.3,1.758,16.513,16.513,0,0,1,5.518,4.419,17.529,17.529,0,0,1,3.052,5.786,20.017,20.017,0,0,1,.952,5.811Zm-12.7-17.09a5.2,5.2,0,0,0-1.318-3.906,5.276,5.276,0,0,0-3.809-1.27h-22.8a5.287,5.287,0,0,0-3.857,1.294,5.071,5.071,0,0,0-1.318,3.784v17.188a5.157,5.157,0,0,0,1.318,3.809A5.227,5.227,0,0,0,421.25-12.7h22.8a5.127,5.127,0,0,0,3.857-1.318,5.277,5.277,0,0,0,1.27-3.809Zm75.908,39.99a19.389,19.389,0,0,1-.83,5.884,17.146,17.146,0,0,1-2.2,4.59,14.932,14.932,0,0,1-3.174,3.369,18.52,18.52,0,0,1-3.784,2.271,19.452,19.452,0,0,1-4,1.294,19.133,19.133,0,0,1-3.833.415h-22.9v-12.7h22.9a5.127,5.127,0,0,0,3.857-1.318,5.277,5.277,0,0,0,1.27-3.809V-35.01a5.188,5.188,0,0,0-1.27-3.784,5.185,5.185,0,0,0-3.857-1.294h-22.9a4.873,4.873,0,0,0-3.711,1.44,5.073,5.073,0,0,0-1.367,3.638v17.188a5.157,5.157,0,0,0,1.318,3.809,5.227,5.227,0,0,0,3.857,1.318h22.8V0h-22.9a18.779,18.779,0,0,1-3.809-.415,19.566,19.566,0,0,1-3.979-1.294,18.521,18.521,0,0,1-3.784-2.271,14.932,14.932,0,0,1-3.174-3.369,17.144,17.144,0,0,1-2.2-4.59,19.39,19.39,0,0,1-.83-5.884V-35.01a18.778,18.778,0,0,1,.415-3.809A19.566,19.566,0,0,1,468.3-42.8a18.521,18.521,0,0,1,2.271-3.784,14.932,14.932,0,0,1,3.369-3.174,17.222,17.222,0,0,1,4.565-2.2,19.153,19.153,0,0,1,5.859-.83h22.9a19.134,19.134,0,0,1,3.833.415,19.452,19.452,0,0,1,4,1.294,18.52,18.52,0,0,1,3.784,2.271,14.932,14.932,0,0,1,3.174,3.369,17.223,17.223,0,0,1,2.2,4.565,19.152,19.152,0,0,1,.83,5.859Zm64.824,0a19.389,19.389,0,0,1-.83,5.884,17.146,17.146,0,0,1-2.2,4.59,14.932,14.932,0,0,1-3.174,3.369,18.52,18.52,0,0,1-3.784,2.271,19.565,19.565,0,0,1-3.979,1.294,18.779,18.779,0,0,1-3.809.415h-22.9v-12.7h22.9a5.056,5.056,0,0,0,3.809-1.318,5.276,5.276,0,0,0,1.27-3.809V-52.783h12.7ZM572.139,0h-22.9A20.4,20.4,0,0,1,543.4-.928a17.246,17.246,0,0,1-5.786-3.052A16.7,16.7,0,0,1,533.174-9.5a17.942,17.942,0,0,1-1.758-8.325V-52.783h12.7v34.961a5.157,5.157,0,0,0,1.318,3.809,5.3,5.3,0,0,0,3.906,1.318h22.8Z" transform="translate(877 552.098)" fill="#4a5568"/>
    <text id="BookingSystem" transform="translate(828 602)" fill="#4a5568" font-size="60" font-family="Audiowide-Regular, Audiowide" letter-spacing="0.01em"><tspan x="0" y="0">BookingSystem</tspan></text>
    <g id="Rectangle_32" data-name="Rectangle 32" transform="translate(454 462)" fill="none" stroke="#4a5568" stroke-width="5">
      <rect width="128" height="128" rx="10" stroke="none"/>
      <rect x="2.5" y="2.5" width="123" height="123" rx="7.5" fill="none"/>
    </g>
    <path id="Path_17" data-name="Path 17" d="M90.674-26.221a29.443,29.443,0,0,1-1.392,8.533,25.5,25.5,0,0,1-4.5,8.5,25.114,25.114,0,0,1-8.13,6.555A25.938,25.938,0,0,1,64.453,0H30.1A29.443,29.443,0,0,1,21.57-1.392a25.5,25.5,0,0,1-8.5-4.5,25.114,25.114,0,0,1-6.555-8.13A25.938,25.938,0,0,1,3.882-26.221,29.805,29.805,0,0,1,5.273-34.79a25.431,25.431,0,0,1,4.5-8.533,25.114,25.114,0,0,1,8.13-6.555A25.938,25.938,0,0,1,30.1-52.515H64.453v18.164H30.1A7.63,7.63,0,0,0,24.1-31.97a8.532,8.532,0,0,0-2.124,5.9,7.231,7.231,0,0,0,2.454,5.823,8.7,8.7,0,0,0,5.823,2.087h34.2a7.691,7.691,0,0,0,6.006-2.344,8.4,8.4,0,0,0,2.124-5.859V-52.954a7.805,7.805,0,0,0-2.307-5.933,8.106,8.106,0,0,0-5.823-2.2H22.632V-79.175H64.453a29.443,29.443,0,0,1,8.533,1.392,25.5,25.5,0,0,1,8.5,4.5,25.114,25.114,0,0,1,6.555,8.13,25.938,25.938,0,0,1,2.637,12.195Z" transform="translate(471.118 565.175)" fill="#4a5568"/>
  </g>
</svg>
